<svg id="visual" viewBox="0 0 960 540" width="960" height="540" xmlns="http://www.w3.org/2000/svg" xmlns:xlink="http://www.w3.org/1999/xlink" version="1.1"><path d="M0 473L20 471C40 469 80 465 120 464.3C160 463.7 200 466.3 240 466.8C280 467.3 320 465.7 360 462.5C400 459.3 440 454.7 480 455.5C520 456.3 560 462.7 600 463C640 463.3 680 457.7 720 455.7C760 453.7 800 455.3 840 457C880 458.7 920 460.3 940 461.2L960 462L960 541L940 541C920 541 880 541 840 541C800 541 760 541 720 541C680 541 640 541 600 541C560 541 520 541 480 541C440 541 400 541 360 541C320 541 280 541 240 541C200 541 160 541 120 541C80 541 40 541 20 541L0 541Z" fill="#ff0000" stroke-linecap="round" stroke-linejoin="miter"></path></svg>